<?xml version="1.0" encoding="UTF-8"?>
<!DOCTYPE svg PUBLIC "-//W3C//DTD SVG 1.1//EN" "http://www.w3.org/Graphics/SVG/1.1/DTD/svg11.dtd">
<!-- Creator: CorelDRAW -->
<svg xmlns="http://www.w3.org/2000/svg" xml:space="preserve" width="33.75mm" height="33.75mm" version="1.1" style="shape-rendering:geometricPrecision; text-rendering:geometricPrecision; image-rendering:optimizeQuality; fill-rule:evenodd; clip-rule:evenodd"
viewBox="0 0 3375 3375"
 xmlns:xlink="http://www.w3.org/1999/xlink"
 xmlns:xodm="http://www.corel.com/coreldraw/odm/2003">
 <defs>
  <style type="text/css">
   <![CDATA[
    .fil0 {fill:#E6E8EC}
    .fil1 {fill:#E6E8EC;fill-rule:nonzero}
   ]]>
  </style>
 </defs>
 <g id="Layer_x0020_1">
  <metadata id="CorelCorpID_0Corel-Layer"/>
  <path class="fil0" d="M1681.67 3180.83c821.52,0 1487.5,-665.98 1487.5,-1487.5 0,-821.52 -665.98,-1487.5 -1487.5,-1487.5 -821.52,0 -1487.5,665.98 -1487.5,1487.5 0,821.52 665.98,1487.5 1487.5,1487.5zm0 200c931.99,0 1687.5,-755.51 1687.5,-1687.5 0,-931.99 -755.51,-1687.5 -1687.5,-1687.5 -931.99,0 -1687.5,755.51 -1687.5,1687.5 0,931.99 755.51,1687.5 1687.5,1687.5z"/>
  <path class="fil1" d="M2215.27 1582.68l-0.84 -0.83 -422.32 -422.62c0,0 -514.73,514.73 -762.76,767.91 -30.89,31.48 -54.29,75.29 -68.17,117.67 -40.71,124.43 -74.4,251.38 -111.87,377.07 -10.06,33.7 -8.02,63.38 18.38,88.52 24.89,23.94 52.9,24.78 85.23,15.09 119.7,-35.91 240.19,-70.09 360.43,-104.5 61.78,-17.91 117.96,-51.79 162.58,-98.12 236.3,-237.74 739.36,-740.2 739.36,-740.2l-0.02 0.01zm246.53 -525.09l-144.42 -144.42c-37,-36.99 -87.26,-57.8 -139.61,-57.8 -52.35,0 -102.6,20.81 -139.61,57.8l-163.69 163.52 423.7 423.82 163.7 -163.7c36.97,-37.03 57.76,-87.25 57.76,-139.58 0,-52.35 -20.83,-102.63 -57.83,-139.64l0 0z" data-original="#000000"/>
 </g>
</svg>
