<?xml version="1.0" encoding="UTF-8"?>
<!DOCTYPE svg PUBLIC "-//W3C//DTD SVG 1.1//EN" "http://www.w3.org/Graphics/SVG/1.1/DTD/svg11.dtd">
<!-- Creator: CorelDRAW -->
<svg xmlns="http://www.w3.org/2000/svg" xml:space="preserve" width="279.999mm" height="279.999mm" version="1.1" style="shape-rendering:geometricPrecision; text-rendering:geometricPrecision; image-rendering:optimizeQuality; fill-rule:evenodd; clip-rule:evenodd"
viewBox="0 0 27999.9 27999.9"
 xmlns:xlink="http://www.w3.org/1999/xlink"
 xmlns:xodm="http://www.corel.com/coreldraw/odm/2003">
 <defs>
  <style type="text/css">
   <![CDATA[
    .fil0 {fill:#E6E8EC}
   ]]>
  </style>
 </defs>
 <g id="Layer_x0020_1">
  <metadata id="CorelCorpID_0Corel-Layer"/>
  <g id="_2861647736016">
   <path class="fil0" d="M1196.11 14003.81c0,-7069.24 5730.74,-12799.98 12799.98,-12799.98 7069.24,0 12799.98,5730.74 12799.98,12799.98 0,7069.24 -5730.74,12799.98 -12799.98,12799.98 -7069.24,0 -12799.98,-5730.74 -12799.98,-12799.98zm26799.95 0c0,-7731.97 -6268,-13999.97 -13999.97,-13999.97 -7731.97,0 -13999.97,6268 -13999.97,13999.97 0,7731.97 6268,13999.97 13999.97,13999.97 7731.97,0 13999.97,-6268 13999.97,-13999.97z"/>
   <polygon class="fil0" points="13396.09,6332.77 7525.02,12203.84 15873.04,12203.84 14673.05,11003.85 10422.06,11003.85 13396.09,8029.82 18770.09,13403.81 6325.02,13403.81 14596.09,21674.88 15444.6,20826.34 9222.07,14603.81 21667.13,14603.81 15093.14,8029.82 "/>
  </g>
 </g>
</svg>
