<svg xmlns="http://www.w3.org/2000/svg" version="1.1" xmlns:xlink="http://www.w3.org/1999/xlink" width="512" height="512" x="0" y="0" viewBox="0 0 32 32" style="enable-background:new 0 0 512 512" xml:space="preserve" class=""><g transform="matrix(-1,0,0,1,31.99897575378418,0)"><g fill-rule="evenodd" clip-rule="evenodd"><path d="M15.991.77c8.431-.003 15.241 6.804 15.241 15.229 0 8.428-6.811 15.234-15.241 15.231C7.567 31.228.751 24.402.767 15.984.784 7.562 7.578.771 15.991.77zm13.261 15.234c.005-7.303-5.922-13.242-13.224-13.255-7.322-.013-13.26 5.904-13.281 13.23-.019 7.309 5.927 13.268 13.24 13.271 7.323.004 13.261-5.925 13.265-13.246z" fill="#e6e8ec" opacity="1" data-original="#000000" class=""></path><path d="M17.9 9.137c.534.042.854.223 1.02.612.163.387.104.754-.182 1.063-.352.377-.72.738-1.078 1.106a3928.06 3928.06 0 0 0-3.5 3.584c-.102.104-.227.2-.279.325a.554.554 0 0 0-.001.391c.052.126.177.226.278.328 1.502 1.543 3.005 3.086 4.512 4.625.303.309.418.665.278 1.073-.125.37-.4.592-.79.654a.905.905 0 0 1-.821-.265c-1.643-1.681-3.301-3.348-4.913-5.056-.857-.908-.841-2.233.023-3.14a333.466 333.466 0 0 1 4.885-4.995c.169-.168.437-.237.568-.305z" fill="#e6e8ec" opacity="1" data-original="#000000" class=""></path></g></g></svg>