<?xml version="1.0" encoding="UTF-8"?>
<!DOCTYPE svg PUBLIC "-//W3C//DTD SVG 1.1//EN" "http://www.w3.org/Graphics/SVG/1.1/DTD/svg11.dtd">
<!-- Creator: CorelDRAW -->
<svg xmlns="http://www.w3.org/2000/svg" xml:space="preserve" width="33.75mm" height="33.75mm" version="1.1" style="shape-rendering:geometricPrecision; text-rendering:geometricPrecision; image-rendering:optimizeQuality; fill-rule:evenodd; clip-rule:evenodd"
viewBox="0 0 3375 3375"
 xmlns:xlink="http://www.w3.org/1999/xlink"
 xmlns:xodm="http://www.corel.com/coreldraw/odm/2003">
 <defs>
  <style type="text/css">
   <![CDATA[
    .fil0 {fill:#FEFEFE}
   ]]>
  </style>
 </defs>
 <g id="Layer_x0020_1">
  <metadata id="CorelCorpID_0Corel-Layer"/>
  <path class="fil0" d="M1681.67 3180.83c821.52,0 1487.5,-665.98 1487.5,-1487.5 0,-821.52 -665.98,-1487.5 -1487.5,-1487.5 -821.52,0 -1487.5,665.98 -1487.5,1487.5 0,821.52 665.98,1487.5 1487.5,1487.5zm0 200c931.99,0 1687.5,-755.51 1687.5,-1687.5 0,-931.99 -755.51,-1687.5 -1687.5,-1687.5 -931.99,0 -1687.5,755.51 -1687.5,1687.5 0,931.99 755.51,1687.5 1687.5,1687.5z"/>
  <path class="fil0" d="M2603.49 1420.8c-12.96,-178.59 -45.51,-363.01 -273.84,-376.5 -212.45,-11.41 -428.74,-18.3 -642.27,-18.3 -213.54,0 -429.83,6.89 -641.99,17.91 -228.34,13.23 -260.88,197.91 -273.84,376.5 -6.78,88.74 -10.27,178.13 -10.27,267.09 0,88.95 3.49,178.34 10.03,266.87 12.96,178.59 45.51,363.01 273.84,376.5 212.4,11.23 428.69,18.12 642.23,18.12 213.53,0 429.82,-6.89 641.98,-17.91 228.34,-13.23 260.88,-197.91 273.84,-376.5 6.77,-88.74 10.26,-178.13 10.26,-267.08 0,-88.96 -3.49,-178.35 -10.03,-266.88l0.06 0.18zm-1101.2 504.83l0 -529.17 502.71 264.58 -502.71 264.59z"/>
 </g>
</svg>
